# xmcd
#
# Track frame offsets: 
#        150
#        13855
#        29410
#        41293
#        60616
#        89655
#        109743
#        122323
#
# Disc length: 2393 seconds
#
# Revision: 17
# Processed by: cddbd v1.5.2PL0 Copyright (c) Steve Scherf et al.
# Submitted via: ExactAudioCopyFreeDBPlugin 1.0
#
DISCID=5f095708
DTITLE=Uriah Heep - 2013 - Classic Album Selection Cd 2
DYEAR=2013
DGENRE=Classic Rock
TTITLE0=The Wizard
TTITLE1=Traveller In Time
TTITLE2=Easy Livin'
TTITLE3=Poet's Justice
TTITLE4=Circle Of Hands
TTITLE5=Rainbow Demon
TTITLE6=All My Life
TTITLE7=The Spell
EXTD=LABEL =Polygram Records, Inc.\nID =812297-2\nUPC =0422-812297-
EXTD=25\nCOPYRIGHT =1972\n*****\nSPARS=AAD YEAR: 1972
EXTT0=
EXTT1=
EXTT2=
EXTT3=
EXTT4=
EXTT5=
EXTT6=
EXTT7=
PLAYORDER=
